HIERARCHY
ROOT Hips
{
	OFFSET 0.000000 8.830580 0.000000
	CHANNELS 6 Xposition Yposition Zposition Zrotation Yrotation Xrotation 
	JOINT Spine
	{
		OFFSET 0.000000 0.010000 0.000000
		CHANNELS 3 Zrotation Yrotation Xrotation
		JOINT Spine1
		{
			OFFSET 0.000000 2.459130 0.000000
			CHANNELS 3 Zrotation Yrotation Xrotation
			JOINT Neck
			{
				OFFSET 0.000000 2.484630 0.000000
				CHANNELS 3 Zrotation Yrotation Xrotation
				JOINT Head_virtual
				{
					OFFSET 0.000000 0.000000 0.000000
					CHANNELS 3 Zrotation Yrotation Xrotation
					JOINT Head
					{
						OFFSET 0.000000 0.927525 0.000000
						CHANNELS 3 Zrotation Yrotation Xrotation
						End Site
						{
							OFFSET 0.000000 0.000000 0.000000
						}
					}
				}
				JOINT LeftUpArm_virtual
				{
					OFFSET 0.000000 0.000000 0.000000
					CHANNELS 3 Zrotation Yrotation Xrotation
					JOINT LeftUpArm
					{
						OFFSET 1.248820 0.000000 0.000000
						CHANNELS 3 Zrotation Yrotation Xrotation
						JOINT LeftForeArm
						{
							OFFSET 2.597580 0.000000 0.000000
							CHANNELS 3 Zrotation Yrotation Xrotation
							JOINT LeftHand
							{
								OFFSET 2.455420 0.000000 0.000000
								CHANNELS 3 Zrotation Yrotation Xrotation
								End Site
								{
									OFFSET 0.000000 0.000000 0.000000
								}
							}
						}
					}
				}
				JOINT RightUpArm_virtual
				{
					OFFSET -0.000000 -0.000000 -0.000000
					CHANNELS 3 Zrotation Yrotation Xrotation
					JOINT RightUpArm
					{
						OFFSET -1.248820 -0.000000 -0.000000
						CHANNELS 3 Zrotation Yrotation Xrotation
						JOINT RightForeArm
						{
							OFFSET -2.597580 -0.000000 -0.000000
							CHANNELS 3 Zrotation Yrotation Xrotation
							JOINT RightHand
							{
								OFFSET -2.455420 -0.000000 -0.000000
								CHANNELS 3 Zrotation Yrotation Xrotation
								End Site
								{
									OFFSET 0.000000 0.000000 0.000000
								}
							}
						}
					}
				}
			}
		}
	}
	JOINT LeftUpLeg
	{
		OFFSET 1.271939 0.000000 0.000000
		CHANNELS 3 Zrotation Yrotation Xrotation
		JOINT LeftLowLeg
		{
			OFFSET 0.000000 -4.342910 0.000000
			CHANNELS 3 Zrotation Yrotation Xrotation
			JOINT LeftFoot
			{
				OFFSET 0.000000 -4.487670 0.000000
				CHANNELS 3 Zrotation Yrotation Xrotation
				JOINT LeftToeBase
				{
					OFFSET 0.000000 0.000000 1.515070
					CHANNELS 3 Zrotation Yrotation Xrotation
					End Site
					{
						OFFSET 0.000000 0.000000 0.000000
					}
				}
			}
		}
	}
	JOINT RightUpLeg
	{
		OFFSET -1.271939 0.000000 0.000000
		CHANNELS 3 Zrotation Yrotation Xrotation
		JOINT RightLowLeg
		{
			OFFSET 0.000000 -4.342910 0.000000
			CHANNELS 3 Zrotation Yrotation Xrotation
			JOINT RightFoot
			{
				OFFSET 0.000000 -4.487670 0.000000
				CHANNELS 3 Zrotation Yrotation Xrotation
				JOINT RightToeBase
				{
					OFFSET 0.000000 0.000000 1.515070
					CHANNELS 3 Zrotation Yrotation Xrotation
					End Site
					{
						OFFSET 0.000000 0.000000 0.000000
					}
				}
			}
		}
	}
}
MOTION
Frames: 13
Frame Time: 0.041667
-16.744283 9.271646 46.404589 -173.394686 14.132974 179.094194 3.617345 -5.293728 -21.272211 5.504934 -0.373500 36.847813 0.000000 0.000000 0.000000 6.742701 -5.810382 -4.661311 17.296002 0.466765 -58.532106 -32.945999 -3.236650 -9.914960 -35.871201 2.104650 38.880501 0.000000 -31.332300 0.000000 8.654480 6.506780 -2.148180 25.795099 1.502300 -4.716560 36.845699 6.650900 21.237700 0.000000 25.050501 0.000000 -5.256420 -2.416350 -5.264980 8.096696 18.205662 7.896609 0.000000 0.000000 6.288540 -6.618959 6.612996 5.332078 0.000000 0.000000 -9.508860 4.563655 20.213920 5.477737 0.000000 0.000000 6.421710 16.734880 -21.603706 9.991107 0.000000 0.000000 -9.474540 
-16.788374 9.269314 46.412550 -173.324590 14.771991 179.077850 3.450715 -5.724119 -20.773838 5.947074 -0.448709 36.788213 0.000000 0.000000 0.000000 7.285134 -6.461024 -4.317585 17.544488 0.189911 -58.754318 -33.101601 -3.088330 -10.155600 -35.747101 2.345800 39.525501 0.000000 -31.649900 0.000000 8.365710 6.334690 -2.127760 25.747601 1.226770 -3.992190 36.345699 7.526580 20.626301 0.000000 25.562700 0.000000 -5.678860 -2.103310 -5.576060 7.970080 18.650486 8.206359 0.000000 0.000000 5.923500 -6.521762 6.694152 5.283975 0.000000 0.000000 -9.417130 4.332133 20.466215 5.038899 0.000000 0.000000 6.983980 16.737783 -21.340134 10.070653 0.000000 0.000000 -9.504250 
-16.832146 9.266226 46.425095 -173.264646 15.381565 179.149771 3.077869 -6.402158 -20.223678 6.847159 -0.416562 36.607124 0.000000 0.000000 0.000000 7.574714 -7.117469 -3.938054 17.775520 -0.253057 -59.088133 -33.539001 -3.015520 -9.870450 -35.464401 2.235500 40.028599 0.000000 -31.912701 0.000000 8.246190 6.279470 -1.846000 25.440399 0.969590 -3.928820 36.057899 7.680630 20.006500 0.000000 26.418501 0.000000 -6.009050 -1.921030 -5.533290 7.799883 19.054175 8.367820 0.000000 0.000000 5.578210 -6.437789 6.782213 5.249346 0.000000 0.000000 -9.330770 4.062678 20.783125 4.408247 0.000000 0.000000 7.674590 16.830613 -21.123267 10.084758 0.000000 0.000000 -9.585280 
-16.875395 9.264435 46.438879 -173.229877 15.989607 179.338842 2.537011 -7.266713 -19.752867 8.086735 -0.290944 36.329042 0.000000 0.000000 0.000000 7.573181 -7.650163 -3.444313 17.898079 -0.762106 -59.475495 -34.191299 -3.019330 -9.390980 -35.090599 2.048710 40.246799 0.000000 -32.027199 0.000000 7.865120 6.067790 -1.841450 24.890200 0.742408 -3.938450 35.974201 7.622030 19.377501 0.000000 27.221201 0.000000 -6.461720 -1.831480 -5.835900 7.584171 19.552480 8.402426 0.000000 0.000000 5.210050 -6.430344 6.763816 5.276407 0.000000 0.000000 -9.238120 3.737257 21.182877 3.584117 0.000000 0.000000 8.500460 16.957028 -20.934116 10.023621 0.000000 0.000000 -9.606790 
-16.917302 9.263137 46.456169 -173.229730 16.578073 179.512551 2.011349 -8.037148 -19.356486 8.955244 -0.266584 36.256955 0.000000 0.000000 0.000000 7.477672 -7.987724 -3.152687 17.996260 -1.202141 -59.651033 -34.615200 -2.967190 -9.182110 -34.714600 1.884780 40.391701 0.000000 -32.076302 0.000000 7.596500 5.857700 -1.790690 24.415001 0.590337 -3.896040 36.070499 7.672500 18.907801 0.000000 28.068399 0.000000 -7.076960 -1.714420 -6.355400 7.308646 19.854384 8.410300 0.000000 0.000000 4.830630 -6.428919 6.887456 5.349153 0.000000 0.000000 -9.168320 3.384711 21.570170 2.685247 0.000000 0.000000 9.421050 16.945264 -20.776258 10.013008 0.000000 0.000000 -9.695900 
-16.958320 9.261236 46.475416 -173.254032 17.227319 179.736014 1.746562 -8.175599 -19.275818 8.878336 -0.307153 36.576512 0.000000 0.000000 0.000000 8.171078 -8.432168 -3.464211 17.840097 -1.154483 -59.358228 -34.217400 -3.098150 -9.334190 -34.640202 1.815340 40.431301 0.000000 -32.038601 0.000000 7.553520 5.941480 -1.199390 24.232700 0.520633 -4.171790 36.533798 7.576210 18.602100 0.000000 28.855000 0.000000 -7.597140 -1.565750 -7.113700 7.022331 20.352759 8.371216 0.000000 0.000000 4.449330 -6.395371 6.890465 5.449861 0.000000 0.000000 -9.129590 2.966779 21.956402 1.573817 0.000000 0.000000 10.594900 17.065190 -20.479896 9.923557 0.000000 0.000000 -9.833900 
-16.997856 9.256879 46.494640 -173.315936 17.954243 -179.970255 1.852612 -7.676649 -19.173860 7.529545 -0.448662 36.532101 0.000000 0.000000 0.000000 9.497171 -8.857443 -3.326925 17.256939 -0.398462 -59.198026 -33.419800 -3.038170 -9.659010 -34.241100 1.830920 40.520599 0.000000 -31.827101 0.000000 7.492380 5.752960 1.083480 24.922199 0.628916 -4.224940 36.799198 7.391440 18.485399 0.000000 29.546600 0.000000 -7.970230 -1.452390 -8.055880 6.699794 21.071920 8.261098 0.000000 0.000000 4.082390 -6.326996 6.792916 5.528237 0.000000 0.000000 -9.083140 2.453105 22.229864 0.210731 0.000000 0.000000 12.031000 17.282194 -19.982113 9.792469 0.000000 0.000000 -10.023380 
-17.033437 9.251536 46.514090 -173.395684 18.721964 -179.611370 1.728233 -7.326811 -18.930878 6.726159 -0.307946 36.007102 0.000000 0.000000 0.000000 10.535554 -9.261578 -2.690426 16.905825 0.144360 -59.284104 -32.954300 -3.129630 -9.501010 -33.711102 1.747660 40.410999 0.000000 -31.369900 0.000000 7.578560 5.685120 0.427169 25.495199 0.439314 -4.340780 37.046001 7.024200 18.710899 0.000000 30.076900 0.000000 -8.164910 -1.262350 -8.417330 6.357184 21.819999 8.094983 0.000000 0.000000 3.692660 -6.338185 6.662718 5.603574 0.000000 0.000000 -9.015890 1.907403 22.479202 -1.347426 0.000000 0.000000 13.647200 17.518478 -19.457160 9.704755 0.000000 0.000000 -10.329150 
-17.064171 9.247402 46.536133 -173.443806 19.576606 -179.222470 1.478356 -7.076786 -18.756455 6.166220 -0.104511 35.592166 0.000000 0.000000 0.000000 11.437871 -9.622327 -2.216217 16.659395 0.592548 -59.311563 -32.600101 -3.248690 -9.512620 -33.124599 1.709800 40.690800 0.000000 -30.699301 0.000000 8.382980 5.218040 0.673454 25.866301 0.242845 -4.461330 37.441502 6.706670 19.101601 0.000000 30.454300 0.000000 -8.210870 -1.251860 -8.751520 6.061668 22.645012 7.915921 0.000000 0.000000 3.297200 -6.421532 6.523567 5.683117 0.000000 0.000000 -8.923590 1.390283 22.658447 -3.079723 0.000000 0.000000 15.477600 17.718041 -18.800352 9.781330 0.000000 0.000000 -10.758830 
-17.088877 9.243679 46.556054 -173.422321 20.455854 -178.788389 1.371407 -6.678191 -18.799083 5.140853 -0.047609 35.378714 0.000000 0.000000 0.000000 12.476289 -9.912793 -1.860819 16.378488 1.225598 -59.199880 -31.952801 -3.200240 -9.531590 -32.718700 1.519110 39.682301 0.000000 -30.009300 0.000000 7.835580 5.551970 0.548518 26.375401 0.279560 -4.572800 37.930500 6.358440 19.725599 0.000000 30.647600 0.000000 -8.133300 -1.085820 -9.488970 5.814421 23.204233 7.787644 0.000000 0.000000 2.785760 -6.443844 6.617989 5.806956 0.000000 0.000000 -8.951760 0.985419 22.777744 -4.823648 0.000000 0.000000 17.279100 17.878211 -18.237744 9.981709 0.000000 0.000000 -11.276820 
-17.107599 9.241541 46.575608 -173.303582 21.381488 -178.372944 1.338956 -6.104810 -18.878474 3.895171 0.013060 35.282502 0.000000 0.000000 0.000000 13.607101 -10.106410 -1.515335 16.072205 2.055668 -59.046525 -31.246901 -3.155420 -9.751800 -32.147202 1.357040 39.035198 0.000000 -29.198500 0.000000 7.779750 5.601160 0.349290 27.075500 0.276959 -4.678000 38.399399 6.064950 20.472700 0.000000 30.693399 0.000000 -7.953230 -1.112220 -8.883570 5.710939 23.761519 7.777604 0.000000 0.000000 2.197480 -6.589055 6.712531 5.900097 0.000000 0.000000 -8.871920 0.721085 22.800456 -6.513364 0.000000 0.000000 19.069901 17.963023 -17.599276 10.417382 0.000000 0.000000 -11.907080 
-17.119878 9.241015 46.586785 -173.104652 22.054161 -178.009815 1.397573 -5.463613 -19.047245 2.402428 -0.018474 35.282801 0.000000 0.000000 0.000000 14.874581 -10.281504 -1.202848 15.773068 2.996476 -58.752067 -30.466801 -3.057260 -9.705960 -31.535000 0.920999 38.348000 0.000000 -28.208799 0.000000 8.124880 5.523330 0.242585 27.968500 0.179888 -4.812300 38.852100 5.761110 21.293301 0.000000 30.553801 0.000000 -7.646480 -0.895648 -8.620790 5.692092 23.787526 7.907229 0.000000 0.000000 1.471630 -6.739723 7.076896 6.014024 0.000000 0.000000 -8.811140 0.638216 22.826722 -7.925332 0.000000 0.000000 20.669399 18.200721 -17.188733 10.864615 0.000000 0.000000 -12.557570 
-17.129376 9.240887 46.596840 -172.845973 22.886566 -177.672354 1.577470 -4.552678 -19.287853 0.689585 0.006069 35.461102 0.000000 0.000000 0.000000 16.293213 -10.493639 -1.102660 15.405753 4.006786 -58.190976 -29.484200 -2.927430 -9.786290 -31.067301 0.353945 37.042599 0.000000 -27.202600 0.000000 7.613260 5.949210 0.312015 28.894199 0.090083 -5.043770 39.420898 5.409310 22.137400 0.000000 30.262501 0.000000 -7.254810 -0.714102 -7.999330 5.723562 23.608519 8.236714 0.000000 0.000000 0.528813 -6.917087 7.777821 6.173593 0.000000 0.000000 -8.754070 0.614246 22.913212 -9.344867 0.000000 0.000000 22.327600 18.568418 -16.613857 11.446661 0.000000 0.000000 -13.312760 
